<svg version="1.1" xmlns="http://www.w3.org/2000/svg" viewBox="0 0 473.935 473.935">
<circle style="fill:#683ab7;" cx="236.967" cy="236.967" r="236.967"/>
<path style="fill:#ffffff;" d="M237.607,319.122l102.424-102.69c3.02-3.027,3.053-7.959,0.022-10.978
  c-3.035-3.012-7.906-3.035-10.919-0.015L226.644,308.204l-44.404,44.58c-20.587,20.58-40.299,20.595-62.046,0.037
  c-17.781-19.416-16.793-38.881,3.435-59.102l190.539-190.543c14.615-14.615,33.998-4.707,41.081,2.391
  c5.239,4.793,8.187,11.454,8.344,18.563c0.176,7.506-2.829,14.735-8.456,20.352L212.481,287.141
  c-14.746,14.746-21.201,8.303-25.818,3.674c-3.97-3.981-11.394-11.394,1.482-24.262l89.736-89.507c0,0,5.358-5.467,5.313-5.429
  c2.784-3.042,2.784-7.745-0.161-10.69c-2.96-2.945-7.622-2.99-10.679-0.176c0.037-0.037-95.161,94.851-95.161,94.851
  c-19.697,19.689-10.544,37.096-1.489,46.166c17.534,17.519,36.696,7.345,47.715-3.682l142.663-142.644
  c8.64-8.647,13.25-19.899,12.995-31.667c-0.277-11.293-5.059-22.005-13.141-29.392c-13.317-13.325-41.818-23.042-62.712-2.14
  L112.688,282.763c-25.77,25.77-27.049,55.259-3.514,80.909c27.985,26.507,57.683,26.383,84.029,0.06L237.607,319.122z"/>
</svg>
